<?xml version="1.0" encoding="utf-8" standalone="no"?>
<!DOCTYPE svg PUBLIC "-//W3C//DTD SVG 1.1//EN"
  "http://www.w3.org/Graphics/SVG/1.1/DTD/svg11.dtd">
<!-- Created with matplotlib (https://matplotlib.org/) -->
<svg height="216pt" version="1.1" viewBox="0 0 864 216" width="864pt" xmlns="http://www.w3.org/2000/svg" xmlns:xlink="http://www.w3.org/1999/xlink">
 <metadata>
  <rdf:RDF xmlns:cc="http://creativecommons.org/ns#" xmlns:dc="http://purl.org/dc/elements/1.1/" xmlns:rdf="http://www.w3.org/1999/02/22-rdf-syntax-ns#">
   <cc:Work>
    <dc:type rdf:resource="http://purl.org/dc/dcmitype/StillImage"/>
    <dc:date>2022-12-11T19:55:28.009331</dc:date>
    <dc:format>image/svg+xml</dc:format>
    <dc:creator>
     <cc:Agent>
      <dc:title>Matplotlib v3.3.4, https://matplotlib.org/</dc:title>
     </cc:Agent>
    </dc:creator>
   </cc:Work>
  </rdf:RDF>
 </metadata>
 <defs>
  <style type="text/css">*{stroke-linecap:butt;stroke-linejoin:round;}</style>
 </defs>
 <g id="figure_1">
  <g id="patch_1">
   <path d="M 0 216 
L 864 216 
L 864 0 
L 0 0 
z
" style="fill:#ffffff;"/>
  </g>
  <g id="axes_1">
   <g id="line2d_1">
    <path clip-path="url(#p7fc8d77c58)" d="M 138.436364 102.163234 
L 138.988748 107.750376 
L 139.541132 106.992117 
L 140.093516 109.921832 
L 140.6459 123.135535 
L 141.198284 127.491933 
L 141.750668 124.807447 
L 142.303052 107.017397 
L 142.855436 105.466864 
L 143.40782 94.531928 
L 143.960205 106.450421 
L 144.512589 100.537926 
L 145.064973 98.801319 
L 145.617357 101.515142 
L 146.169741 108.936888 
L 146.722125 118.759495 
L 147.274509 131.660205 
L 147.826893 123.016254 
L 148.379277 117.441293 
L 148.931661 109.969029 
L 149.484046 100.048999 
L 150.03643 98.557419 
L 150.588814 91.759237 
L 151.141198 92.272265 
L 151.693582 85.104455 
L 152.245966 101.66655 
L 152.79835 125.607375 
L 153.350734 138.645808 
L 153.903118 130.907988 
L 154.455502 118.59195 
L 155.007886 115.796972 
L 155.560271 115.248214 
L 156.112655 108.355405 
L 157.217423 66.344315 
L 157.769807 78.297522 
L 158.874575 135.057793 
L 159.426959 131.239436 
L 160.531727 114.5393 
L 161.084112 117.10972 
L 161.636496 108.474478 
L 162.18888 102.279241 
L 162.741264 83.534998 
L 163.293648 89.541735 
L 163.846032 104.696872 
L 164.398416 114.480296 
L 164.9508 103.471189 
L 165.503184 107.501885 
L 166.055568 116.818718 
L 166.607952 121.997569 
L 167.160337 131.59703 
L 167.712721 122.358694 
L 168.817489 89.098251 
L 169.369873 81.010993 
L 169.922257 103.161679 
L 170.474641 115.29501 
L 171.027025 119.521163 
L 171.579409 115.455068 
L 172.131793 105.979536 
L 172.684178 104.015319 
L 173.236562 100.599147 
L 173.788946 101.302637 
L 174.34133 104.842363 
L 174.893714 100.88846 
L 175.446098 117.553245 
L 175.998482 114.065697 
L 176.550866 113.835353 
L 177.10325 113.251057 
L 177.655634 109.478657 
L 178.208018 110.339219 
L 178.760403 117.130731 
L 179.312787 113.056613 
L 180.417555 91.247488 
L 180.969939 96.631621 
L 181.522323 110.6355 
L 182.074707 111.149526 
L 182.627091 107.651081 
L 183.179475 100.41131 
L 183.731859 110.664395 
L 184.284244 117.635834 
L 184.836628 120.396445 
L 185.389012 109.211086 
L 185.941396 95.500463 
L 186.49378 88.164958 
L 187.046164 96.742141 
L 187.598548 112.371269 
L 188.703316 120.964909 
L 189.2557 122.642286 
L 189.808084 117.950037 
L 190.360469 119.058907 
L 190.912853 111.08611 
L 192.017621 93.062005 
L 192.570005 97.684218 
L 193.122389 103.368594 
L 193.674773 98.613333 
L 194.227157 103.459737 
L 194.779541 103.680568 
L 195.331925 115.999177 
L 195.88431 133.821718 
L 196.436694 129.401022 
L 196.989078 120.017682 
L 197.541462 97.663025 
L 198.093846 99.969521 
L 198.64623 103.059964 
L 199.198614 105.196373 
L 199.750998 108.001493 
L 200.303382 98.599139 
L 200.855766 93.436843 
L 201.40815 110.921399 
L 202.512919 120.565647 
L 203.065303 123.352441 
L 203.617687 113.04978 
L 204.170071 117.563623 
L 204.722455 100.331816 
L 205.274839 93.878524 
L 205.827223 83.155457 
L 206.379607 87.884668 
L 207.484376 114.477848 
L 208.03676 116.964342 
L 208.589144 123.851779 
L 209.141528 121.41495 
L 209.693912 115.427649 
L 210.246296 112.60568 
L 211.351064 101.965642 
L 211.903448 108.642837 
L 212.455832 106.364279 
L 213.008216 101.726344 
L 213.560601 99.716674 
L 214.112985 94.273441 
L 214.665369 113.535309 
L 215.217753 114.255019 
L 215.770137 116.83402 
L 216.322521 125.063646 
L 216.874905 115.131198 
L 217.427289 110.959032 
L 217.979673 112.149446 
L 218.532057 87.37641 
L 219.636826 98.798186 
L 220.18921 120.132122 
L 220.741594 124.588641 
L 221.293978 109.780284 
L 221.846362 98.857398 
L 222.398746 107.736377 
L 222.95113 93.941135 
L 223.503514 90.16734 
L 224.055898 97.416147 
L 224.608282 110.922468 
L 225.160667 137.145879 
L 225.713051 127.336316 
L 226.265435 155.657195 
L 226.817819 88.746185 
L 227.370203 84.28941 
L 227.922587 96.368052 
L 228.474971 99.111775 
L 229.027355 95.844403 
L 229.579739 102.304144 
L 230.132123 103.107602 
L 230.684508 97.724352 
L 231.236892 105.019407 
L 231.789276 107.935896 
L 232.34166 117.126747 
L 232.894044 136.00338 
L 233.446428 138.514083 
L 233.998812 125.66751 
L 235.10358 81.929992 
L 235.655964 70.441711 
L 236.208348 80.065662 
L 236.760733 104.063205 
L 237.313117 115.060942 
L 237.865501 132.969952 
L 238.970269 126.747264 
L 239.522653 125.074987 
L 240.075037 114.196719 
L 241.179805 81.385436 
L 241.732189 90.150373 
L 242.284574 105.289643 
L 243.389342 99.804203 
L 244.49411 121.042674 
L 245.046494 136.279098 
L 245.598878 135.762781 
L 246.151262 117.301823 
L 246.703646 109.77207 
L 247.25603 92.179987 
L 247.808414 84.798886 
L 248.360799 75.516263 
L 249.465567 94.669116 
L 250.017951 120.671619 
L 250.570335 135.956006 
L 251.122719 138.729487 
L 251.675103 135.370083 
L 252.779871 106.705986 
L 253.332255 96.817534 
L 253.884639 79.368208 
L 254.437024 86.463677 
L 254.989408 101.144704 
L 255.541792 102.40644 
L 256.64656 124.894611 
L 257.198944 122.084278 
L 257.751328 111.695086 
L 258.303712 113.16518 
L 258.856096 108.431506 
L 259.40848 105.180498 
L 259.960865 90.498773 
L 260.513249 88.142812 
L 261.065633 97.11562 
L 262.170401 124.425856 
L 262.722785 175.696531 
L 263.275169 98.566051 
L 263.827553 63.224343 
L 264.379937 87.552413 
L 264.932321 90.860708 
L 265.484705 86.866688 
L 266.03709 88.271002 
L 266.589474 101.454169 
L 267.141858 100.525288 
L 267.694242 118.589817 
L 268.246626 120.677795 
L 268.79901 124.104131 
L 269.351394 115.36974 
L 269.903778 117.570478 
L 270.456162 113.379123 
L 271.008546 106.806255 
L 271.560931 108.70441 
L 272.113315 91.967865 
L 272.665699 92.834646 
L 273.218083 110.377305 
L 274.322851 126.507181 
L 274.875235 119.338338 
L 275.427619 121.388038 
L 275.980003 119.400114 
L 276.532387 110.372264 
L 277.084771 98.6541 
L 277.637156 81.556293 
L 278.18954 88.252408 
L 278.741924 93.083312 
L 279.846692 117.939779 
L 280.399076 116.49738 
L 280.95146 121.162653 
L 281.503844 121.184382 
L 282.056228 114.436077 
L 282.608612 112.600484 
L 283.160997 104.530179 
L 283.713381 89.304791 
L 284.265765 84.694048 
L 285.370533 100.428425 
L 287.027685 116.1077 
L 287.580069 125.51199 
L 288.132453 141.156831 
L 288.684837 124.874763 
L 289.237222 97.675041 
L 289.789606 84.740053 
L 290.34199 85.221215 
L 291.999142 107.823585 
L 293.10391 134.988199 
L 293.656294 128.480518 
L 294.208678 106.28773 
L 294.761063 96.883539 
L 295.313447 103.224568 
L 295.865831 103.680072 
L 296.418215 115.459994 
L 296.970599 167.046889 
L 297.522983 99.404847 
L 298.075367 73.634417 
L 298.627751 69.603448 
L 299.732519 117.317415 
L 300.284903 129.441857 
L 300.837288 124.109599 
L 301.389672 100.080905 
L 301.942056 97.339371 
L 303.046824 114.08529 
L 303.599208 108.330328 
L 304.151592 103.929259 
L 304.703976 104.370967 
L 305.25636 116.498985 
L 305.808744 111.916321 
L 306.361129 100.967013 
L 306.913513 100.680287 
L 307.465897 111.298661 
L 308.570665 124.313937 
L 309.675433 104.106366 
L 310.227817 107.025154 
L 310.780201 116.114758 
L 311.332585 121.56837 
L 311.884969 110.454388 
L 312.437354 107.595475 
L 313.542122 92.060968 
L 314.094506 88.13225 
L 314.64689 96.763275 
L 315.751658 117.182478 
L 316.304042 121.715942 
L 316.856426 110.87052 
L 317.40881 119.585055 
L 317.961195 125.47431 
L 318.513579 110.720913 
L 319.065963 102.322362 
L 319.618347 87.02449 
L 320.170731 92.607999 
L 320.723115 99.687627 
L 321.275499 101.097125 
L 321.827883 103.575745 
L 322.380267 98.117637 
L 322.932651 109.363514 
L 323.485035 130.904387 
L 324.03742 134.206472 
L 324.589804 133.255297 
L 325.142188 121.124528 
L 325.694572 98.025008 
L 326.246956 89.367248 
L 326.79934 76.72796 
L 327.351724 84.543764 
L 327.904108 103.031458 
L 328.456492 102.896106 
L 329.561261 125.504312 
L 330.113645 137.646096 
L 330.666029 140.023872 
L 331.218413 124.928274 
L 332.323181 88.023216 
L 332.875565 80.869856 
L 333.427949 79.425445 
L 333.980333 80.923656 
L 334.532717 93.970024 
L 335.085101 120.126662 
L 335.637486 134.124331 
L 336.18987 128.983203 
L 336.742254 158.938389 
L 337.294638 95.594876 
L 337.847022 97.639402 
L 338.399406 103.515489 
L 338.95179 104.389826 
L 339.504174 96.097672 
L 340.056558 79.214553 
L 340.608942 88.793001 
L 341.161327 94.868976 
L 341.713711 102.951159 
L 342.266095 120.325568 
L 342.818479 127.469765 
L 343.370863 138.711838 
L 343.923247 136.506697 
L 344.475631 106.243934 
L 345.028015 101.37187 
L 346.132783 94.02543 
L 346.685167 108.127471 
L 347.237552 106.589057 
L 347.789936 113.266871 
L 348.34232 115.018833 
L 348.894704 107.207245 
L 349.447088 115.980543 
L 349.999472 104.50852 
L 350.551856 109.263052 
L 351.10424 104.856104 
L 351.656624 109.073031 
L 352.209008 109.681248 
L 352.761393 109.170482 
L 353.866161 113.476229 
L 354.418545 109.426602 
L 354.970929 91.559291 
L 355.523313 96.729051 
L 356.075697 97.497985 
L 356.628081 103.223848 
L 357.180465 113.675753 
L 357.732849 102.877989 
L 358.837618 107.105535 
L 359.390002 111.610733 
L 359.942386 126.485285 
L 360.49477 125.519419 
L 361.599538 102.576261 
L 362.151922 97.242553 
L 362.704306 94.953715 
L 363.25669 91.618907 
L 363.809074 101.281876 
L 364.361459 116.725611 
L 364.913843 128.730946 
L 365.466227 121.623387 
L 366.018611 111.779053 
L 366.570995 104.825941 
L 367.675763 113.396837 
L 368.228147 96.651101 
L 368.780531 99.194134 
L 369.332915 96.255369 
L 369.885299 96.996742 
L 370.437684 100.072938 
L 370.990068 106.273269 
L 371.542452 109.975897 
L 372.094836 125.542799 
L 372.64722 117.029712 
L 373.199604 120.237044 
L 373.751988 107.237604 
L 374.304372 105.154441 
L 374.856756 109.10101 
L 375.40914 97.187762 
L 375.961525 94.602755 
L 376.513909 90.819354 
L 377.066293 94.545255 
L 377.618677 118.294362 
L 378.723445 138.119824 
L 379.275829 137.535279 
L 379.828213 111.489348 
L 380.380597 105.538133 
L 380.932981 88.671068 
L 381.485365 86.212071 
L 382.03775 97.31384 
L 382.590134 99.965526 
L 383.142518 106.866452 
L 383.694902 108.544878 
L 384.247286 109.434125 
L 384.79967 107.714203 
L 385.352054 115.902127 
L 386.456822 125.144794 
L 387.009206 116.222933 
L 387.56159 104.48863 
L 388.666359 86.413363 
L 389.771127 106.057106 
L 390.323511 110.888737 
L 390.875895 122.359866 
L 391.428279 123.299145 
L 391.980663 109.178153 
L 392.533047 101.410732 
L 393.085431 92.012759 
L 393.637816 98.464091 
L 394.1902 101.470085 
L 394.742584 99.475742 
L 395.294968 112.425096 
L 395.847352 119.923028 
L 396.399736 120.505695 
L 396.95212 115.033359 
L 397.504504 111.227521 
L 398.056888 108.29214 
L 398.609272 104.040399 
L 399.161656 101.650941 
L 399.714041 113.787267 
L 400.266425 103.954943 
L 400.818809 113.854323 
L 401.371193 105.392691 
L 401.923577 107.036089 
L 402.475961 116.097173 
L 403.028345 108.972811 
L 403.580729 106.704637 
L 404.133113 107.491892 
L 404.685497 109.327563 
L 405.237882 102.558462 
L 405.790266 104.443457 
L 406.34265 101.364816 
L 406.895034 99.792705 
L 407.447418 107.217 
L 407.999802 127.051712 
L 408.552186 128.895061 
L 409.656954 105.255328 
L 410.761722 105.570751 
L 411.314107 102.456595 
L 411.866491 95.16175 
L 412.418875 108.23446 
L 412.971259 108.714936 
L 413.523643 118.90174 
L 414.076027 109.77206 
L 414.628411 97.237725 
L 415.180795 99.662337 
L 415.733179 115.518718 
L 416.285563 127.271702 
L 416.837948 119.384708 
L 417.942716 76.709221 
L 418.4951 87.878152 
L 419.047484 107.334336 
L 419.599868 110.856754 
L 420.152252 122.663625 
L 420.704636 131.082124 
L 421.25702 127.768488 
L 422.914173 96.520957 
L 424.018941 92.776509 
L 425.123709 109.528411 
L 425.676093 111.966579 
L 426.228477 114.944982 
L 426.780861 119.036069 
L 427.333245 117.695213 
L 427.885629 128.811456 
L 428.438014 124.338689 
L 428.990398 107.513228 
L 429.542782 95.807903 
L 430.095166 81.588582 
L 430.64755 96.421867 
L 431.199934 102.973018 
L 431.752318 102.993153 
L 432.304702 108.656774 
L 432.857086 101.516018 
L 433.40947 123.151873 
L 433.961854 127.728515 
L 435.066623 111.19766 
L 435.619007 93.882655 
L 436.171391 89.199757 
L 436.723775 105.765645 
L 437.276159 106.861953 
L 437.828543 111.691748 
L 438.933311 129.16727 
L 440.03808 105.219362 
L 440.590464 89.171861 
L 441.142848 90.864078 
L 441.695232 96.92899 
L 442.247616 106.340578 
L 442.8 119.86285 
L 443.352384 111.324131 
L 443.904768 115.58813 
L 444.457152 111.540242 
L 445.009536 115.470991 
L 445.56192 126.829504 
L 447.219073 96.664149 
L 447.771457 90.094425 
L 448.323841 97.093162 
L 448.876225 94.429362 
L 449.428609 103.527879 
L 449.980993 108.766708 
L 450.533377 117.222212 
L 451.085761 127.754272 
L 451.638146 129.240395 
L 452.19053 117.342668 
L 452.742914 94.670247 
L 453.295298 92.498651 
L 453.847682 94.445978 
L 454.400066 101.496767 
L 454.95245 102.000304 
L 455.504834 94.544798 
L 456.057218 103.507089 
L 456.609602 126.135983 
L 457.161986 137.998377 
L 457.714371 127.652243 
L 458.266755 110.140673 
L 458.819139 104.193685 
L 459.371523 103.552931 
L 459.923907 96.866944 
L 460.476291 102.313445 
L 461.028675 88.413307 
L 461.581059 87.452507 
L 462.133443 105.848465 
L 462.685827 118.210549 
L 463.238212 124.149948 
L 463.790596 116.257246 
L 464.34298 115.725448 
L 464.895364 125.94534 
L 465.447748 126.084873 
L 467.1049 80.773086 
L 467.657284 93.746471 
L 468.209668 97.56953 
L 469.314437 117.761082 
L 469.866821 112.358945 
L 470.971589 122.053341 
L 471.523973 118.459701 
L 472.076357 109.73432 
L 472.628741 105.680768 
L 473.181125 106.243172 
L 473.733509 108.729785 
L 474.285893 110.120124 
L 474.838278 102.353766 
L 475.390662 100.27229 
L 475.943046 103.731526 
L 477.047814 140.408516 
L 478.152582 96.519726 
L 478.704966 85.040705 
L 479.25735 89.994946 
L 479.809734 107.623014 
L 480.362118 108.988736 
L 480.914503 121.519177 
L 481.466887 109.403494 
L 482.019271 103.612147 
L 482.571655 121.038199 
L 483.124039 98.313389 
L 483.676423 96.02399 
L 484.228807 99.391284 
L 484.781191 106.492952 
L 485.333575 122.772791 
L 485.885959 118.869579 
L 486.438344 110.216138 
L 486.990728 109.734396 
L 487.543112 111.041252 
L 488.095496 116.041967 
L 488.64788 116.849187 
L 489.200264 99.991167 
L 490.305032 87.187715 
L 490.857416 88.124044 
L 491.4098 98.847339 
L 491.962184 121.356638 
L 492.514569 128.588099 
L 493.066953 128.771569 
L 493.619337 130.322352 
L 494.171721 125.369121 
L 494.724105 121.734546 
L 495.828873 78.242501 
L 496.381257 72.234112 
L 496.933641 83.26912 
L 497.486025 106.154449 
L 498.03841 117.54091 
L 498.590794 106.171735 
L 499.143178 123.352233 
L 500.247946 128.146329 
L 500.80033 133.220458 
L 501.905098 103.404702 
L 502.457482 88.365062 
L 503.009866 78.467271 
L 503.56225 88.215218 
L 504.114635 84.906974 
L 505.219403 126.940849 
L 505.771787 135.631955 
L 506.324171 148.347041 
L 506.876555 121.02584 
L 507.981323 92.766387 
L 508.533707 88.149919 
L 509.086091 84.78418 
L 509.638475 86.754671 
L 510.19086 94.067406 
L 510.743244 113.914465 
L 511.295628 113.507023 
L 511.848012 122.908692 
L 512.400396 112.147129 
L 513.505164 128.186532 
L 514.057548 127.9721 
L 514.609932 106.706974 
L 515.162316 98.333293 
L 515.714701 75.001598 
L 516.267085 84.083965 
L 516.819469 88.652092 
L 517.371853 103.589128 
L 517.924237 113.010131 
L 519.029005 141.173605 
L 519.581389 142.671854 
L 520.133773 117.436637 
L 520.686157 101.811951 
L 521.238541 81.573494 
L 521.790926 88.383485 
L 522.34331 100.211901 
L 522.895694 104.415097 
L 523.448078 115.648275 
L 524.000462 108.201895 
L 524.552846 112.555596 
L 525.10523 108.465008 
L 525.657614 109.28217 
L 526.209998 106.678743 
L 526.762382 102.963903 
L 527.314767 102.103024 
L 527.867151 98.292132 
L 528.419535 98.343186 
L 528.971919 100.383156 
L 529.524303 107.381 
L 530.076687 122.661161 
L 530.629071 126.847383 
L 531.181455 119.940882 
L 531.733839 107.655691 
L 532.286223 99.303787 
L 532.838607 94.053881 
L 533.390992 95.354812 
L 533.943376 104.727015 
L 534.49576 116.135554 
L 535.048144 117.488861 
L 535.600528 114.103999 
L 536.152912 122.486366 
L 536.705296 109.367959 
L 537.25768 105.356104 
L 537.810064 108.873773 
L 538.362448 100.503359 
L 538.914833 93.904786 
L 539.467217 89.482086 
L 540.019601 112.763336 
L 540.571985 120.120387 
L 541.124369 112.026098 
L 541.676753 113.158957 
L 542.229137 108.829287 
L 543.333905 128.752269 
L 543.886289 106.325578 
L 544.438673 89.828077 
L 544.991058 86.994872 
L 545.543442 81.501207 
L 546.095826 93.979767 
L 546.64821 96.568911 
L 547.200594 95.498481 
L 547.752978 124.181134 
L 548.305362 137.754911 
L 548.857746 146.180859 
L 549.41013 126.268145 
L 549.962514 102.285139 
L 550.514899 96.749956 
L 551.067283 87.08503 
L 552.172051 97.093922 
L 552.724435 98.722762 
L 553.276819 111.544698 
L 553.829203 117.996458 
L 554.381587 113.803664 
L 554.933971 117.123226 
L 555.486355 113.45438 
L 556.038739 111.357577 
L 557.143508 112.505934 
L 557.695892 111.186681 
L 558.248276 108.703897 
L 558.80066 82.815879 
L 559.353044 83.118838 
L 560.457812 110.956578 
L 561.010196 132.118948 
L 561.56258 124.371358 
L 562.114965 122.032723 
L 562.667349 118.665128 
L 563.219733 116.165869 
L 563.772117 110.370469 
L 564.324501 94.352239 
L 564.876885 86.281829 
L 565.429269 87.426187 
L 566.534037 117.826156 
L 567.086421 122.135956 
L 567.638805 133.222409 
L 568.19119 128.225331 
L 569.295958 96.956293 
L 569.848342 93.061399 
L 570.400726 95.875167 
L 570.95311 103.229571 
L 571.505494 112.363496 
L 572.610262 105.634331 
L 573.162646 99.071534 
L 573.715031 96.431725 
L 574.267415 100.831241 
L 574.819799 119.183829 
L 575.372183 113.210608 
L 575.924567 109.159431 
L 576.476951 113.740348 
L 577.029335 104.90799 
L 577.581719 102.714029 
L 578.134103 112.166476 
L 578.686487 119.713218 
L 579.238871 118.531977 
L 579.791256 119.087531 
L 580.34364 119.964601 
L 580.896024 109.915311 
L 581.448408 114.987102 
L 582.000792 86.139531 
L 582.553176 83.27365 
L 583.10556 115.662496 
L 583.657944 118.169762 
L 584.210328 122.455377 
L 584.762712 130.5455 
L 585.315097 123.318747 
L 585.867481 113.719995 
L 586.419865 100.430001 
L 586.972249 82.167707 
L 587.524633 79.931782 
L 588.077017 63.709237 
L 588.629401 123.572215 
L 589.181785 123.159667 
L 589.734169 160.420253 
L 591.391322 82.635058 
L 591.943706 76.921153 
L 592.49609 80.575311 
L 593.048474 127.030299 
L 593.600858 131.233553 
L 594.153242 110.194332 
L 594.705626 81.960409 
L 595.25801 61.983872 
L 595.810394 115.71522 
L 596.362778 141.280987 
L 596.915163 140.712368 
L 597.467547 134.095054 
L 598.019931 102.485249 
L 598.572315 130.997526 
L 599.124699 141.780056 
L 600.229467 66.505689 
L 600.781851 112.946351 
L 601.334235 101.6277 
L 601.886619 130.270231 
L 602.439003 127.766406 
L 602.991388 48.910685 
L 603.543772 107.26642 
L 604.096156 89.310018 
L 604.64854 92.448695 
L 605.200924 112.536137 
L 605.753308 125.672084 
L 606.305692 90.259527 
L 606.858076 88.126683 
L 607.41046 62.333095 
L 607.962844 127.267199 
L 608.515229 147.652486 
L 609.067613 132.153836 
L 609.619997 109.635162 
L 610.172381 58.8915 
L 610.724765 121.662152 
L 611.277149 155.720206 
L 611.829533 134.407754 
L 612.381917 117.393252 
L 612.934301 104.085303 
L 613.486685 126.556226 
L 614.039069 171.414766 
L 615.143838 37.221553 
L 615.696222 101.343332 
L 616.248606 100.587872 
L 616.80099 155.44045 
L 617.353374 142.286893 
L 617.905758 61.945881 
L 618.458142 72.809858 
L 619.010526 66.464569 
L 619.56291 79.192653 
L 620.115295 131.02859 
L 620.667679 153.514946 
L 621.220063 116.799259 
L 621.772447 90.409288 
L 622.324831 43.427848 
L 622.877215 119.697733 
L 623.429599 124.643635 
L 623.981983 121.990528 
L 624.534367 107.674081 
L 625.086751 82.816775 
L 625.639135 135.552407 
L 626.19152 168.683504 
L 626.743904 104.460373 
L 627.296288 99.106358 
L 627.848672 116.62027 
L 628.401056 128.593952 
L 628.95344 173.427666 
L 630.058208 35.610496 
L 630.610592 113.576659 
L 631.162976 84.096607 
L 631.715361 125.215061 
L 632.267745 123.568043 
L 632.820129 71.083623 
L 633.372513 99.602149 
L 633.924897 84.677161 
L 634.477281 93.083078 
L 635.029665 138.429753 
L 635.582049 139.062538 
L 636.134433 86.841406 
L 636.686817 51.440093 
L 637.239201 33.48 
L 637.791586 117.927331 
L 638.34397 152.468196 
L 638.896354 148.763285 
L 639.448738 123.621283 
L 640.001122 81.535276 
L 640.553506 129.835756 
L 641.10589 150.003978 
L 641.658274 95.209903 
L 642.210658 94.497231 
L 642.763042 102.008894 
L 643.315426 112.77097 
L 643.867811 146.173241 
L 644.972579 46.54852 
L 645.524963 115.681081 
L 646.077347 115.334839 
L 646.629731 141.655385 
L 647.182115 149.096725 
L 647.734499 109.873125 
L 648.286883 107.089548 
L 648.839267 78.885338 
L 649.391652 64.809662 
L 649.944036 90.016127 
L 650.49642 121.1187 
L 651.048804 92.052462 
L 651.601188 80.454623 
L 652.153572 75.577172 
L 652.705956 139.029865 
L 653.25834 164.203182 
L 653.810724 134.43217 
L 654.363108 84.305591 
L 654.915492 49.898529 
L 655.467877 118.490324 
L 656.020261 154.921208 
L 656.572645 121.860641 
L 657.125029 98.846794 
L 657.677413 91.926998 
L 658.229797 107.12909 
L 658.782181 138.987971 
L 659.334565 117.976841 
L 659.886949 74.589686 
L 660.439333 120.225693 
L 660.991718 115.054233 
L 661.544102 119.079025 
L 662.096486 113.751969 
L 662.64887 79.867639 
L 663.201254 84.629933 
L 663.753638 91.485974 
L 664.306022 92.82147 
L 664.858406 137.188316 
L 665.41079 146.200652 
L 666.515558 80.217554 
L 667.067943 55.159287 
L 667.620327 122.144237 
L 668.172711 144.291038 
L 668.725095 136.000894 
L 669.829863 96.458117 
L 670.382247 145.120389 
L 670.934631 160.10714 
L 672.039399 52.267086 
L 672.591784 87.452435 
L 673.144168 101.335198 
L 673.696552 143.518485 
L 674.248936 121.309071 
L 674.80132 65.172655 
L 675.353704 114.575573 
L 675.906088 106.607811 
L 676.458472 110.386318 
L 677.010856 117.046448 
L 677.56324 95.920659 
L 678.115624 92.917672 
L 678.668009 64.419403 
L 679.220393 55.648289 
L 679.772777 112.36556 
L 680.325161 134.485048 
L 680.877545 128.29919 
L 681.429929 98.545794 
L 681.982313 62.376823 
L 682.534697 145.824571 
L 683.087081 174.724761 
L 683.639465 142.410332 
L 684.19185 103.056532 
L 684.744234 71.869906 
L 685.849002 138.789545 
L 686.401386 91.022489 
L 686.95377 70.967329 
L 687.506154 120.514148 
L 688.058538 139.886326 
L 688.610922 184.68 
L 689.163306 133.396199 
L 689.71569 56.325101 
L 690.268075 78.417995 
L 690.820459 69.336372 
L 691.925227 113.080573 
L 693.029995 94.168036 
L 693.582379 87.413783 
L 694.134763 84.077921 
L 694.687147 146.210232 
L 695.239531 155.119158 
L 696.3443 79.705934 
L 696.896684 59.403002 
L 697.449068 123.053868 
L 698.001452 150.595088 
L 699.10622 99.221686 
L 699.658604 77.464833 
L 700.763372 149.715118 
L 701.315756 125.883847 
L 701.868141 94.608611 
L 702.972909 110.230804 
L 703.525293 128.329405 
L 704.077677 108.997983 
L 704.630061 69.818946 
L 705.182445 91.560168 
L 705.734829 93.633647 
L 706.839597 139.716194 
L 707.391982 119.569648 
L 707.944366 86.765269 
L 708.49675 70.720118 
L 709.049134 77.536798 
L 709.601518 136.180049 
L 710.153902 137.72648 
L 710.706286 121.358159 
L 711.25867 99.574708 
L 711.811054 96.091088 
L 712.363438 143.621084 
L 712.915822 141.216513 
L 714.020591 65.83133 
L 714.572975 71.633198 
L 715.125359 113.647607 
L 715.677743 136.74262 
L 716.230127 122.293447 
L 716.782511 82.266003 
L 717.334895 114.134305 
L 717.887279 130.225024 
L 718.439663 138.826815 
L 718.992048 131.731744 
L 719.544432 86.109736 
L 720.096816 103.929402 
L 720.6492 81.176115 
L 721.201584 80.366856 
L 721.753968 95.577202 
L 722.306352 92.519379 
L 723.41112 108.331927 
L 723.963504 101.300541 
L 724.515888 139.345379 
L 725.068273 148.658953 
L 726.173041 87.234796 
L 726.725425 81.07335 
L 727.277809 122.853622 
L 727.830193 149.089532 
L 728.934961 81.829294 
L 729.487345 104.867554 
L 730.039729 119.9307 
L 730.592114 150.324354 
L 731.144498 120.161234 
L 731.696882 76.885424 
L 732.249266 113.800826 
L 732.80165 106.654911 
L 733.354034 102.972886 
L 733.906418 90.609068 
L 734.458802 67.038029 
L 735.011186 94.269716 
L 735.56357 99.025836 
L 736.115954 87.397591 
L 736.668339 134.089352 
L 737.220723 145.029624 
L 737.773107 136.702372 
L 738.877875 64.225449 
L 739.430259 114.011132 
L 739.982643 134.961629 
L 740.535027 114.762694 
L 741.639795 92.501268 
L 742.744564 145.459659 
L 743.296948 101.014282 
L 743.849332 76.527708 
L 744.9541 137.744665 
L 745.506484 154.530101 
L 746.058868 112.937579 
L 746.611252 56.342896 
L 747.163636 89.274889 
L 747.163636 89.274889 
" style="fill:none;stroke:#000000;stroke-linecap:square;stroke-width:2;"/>
   </g>
   <g id="line2d_2">
    <path clip-path="url(#p7fc8d77c58)" d="M 260.292295 192.24 
L 260.292295 25.92 
" style="fill:none;stroke:#ff0000;stroke-linecap:square;stroke-width:3;"/>
   </g>
   <g id="line2d_3">
    <path clip-path="url(#p7fc8d77c58)" d="M 382.148226 192.24 
L 382.148226 25.92 
" style="fill:none;stroke:#ff0000;stroke-linecap:square;stroke-width:3;"/>
   </g>
   <g id="line2d_4">
    <path clip-path="url(#p7fc8d77c58)" d="M 504.004158 192.24 
L 504.004158 25.92 
" style="fill:none;stroke:#ff0000;stroke-linecap:square;stroke-width:3;"/>
   </g>
   <g id="line2d_5">
    <path clip-path="url(#p7fc8d77c58)" d="M 625.860089 192.24 
L 625.860089 25.92 
" style="fill:none;stroke:#ff0000;stroke-linecap:square;stroke-width:3;"/>
   </g>
  </g>
 </g>
 <defs>
  <clipPath id="p7fc8d77c58">
   <rect height="166.32" width="669.6" x="108" y="25.92"/>
  </clipPath>
 </defs>
</svg>
