<?xml version="1.0" encoding="utf-8" standalone="no"?>
<!DOCTYPE svg PUBLIC "-//W3C//DTD SVG 1.1//EN"
  "http://www.w3.org/Graphics/SVG/1.1/DTD/svg11.dtd">
<!-- Created with matplotlib (https://matplotlib.org/) -->
<svg height="216pt" version="1.1" viewBox="0 0 864 216" width="864pt" xmlns="http://www.w3.org/2000/svg" xmlns:xlink="http://www.w3.org/1999/xlink">
 <metadata>
  <rdf:RDF xmlns:cc="http://creativecommons.org/ns#" xmlns:dc="http://purl.org/dc/elements/1.1/" xmlns:rdf="http://www.w3.org/1999/02/22-rdf-syntax-ns#">
   <cc:Work>
    <dc:type rdf:resource="http://purl.org/dc/dcmitype/StillImage"/>
    <dc:date>2022-12-11T22:57:43.564123</dc:date>
    <dc:format>image/svg+xml</dc:format>
    <dc:creator>
     <cc:Agent>
      <dc:title>Matplotlib v3.3.4, https://matplotlib.org/</dc:title>
     </cc:Agent>
    </dc:creator>
   </cc:Work>
  </rdf:RDF>
 </metadata>
 <defs>
  <style type="text/css">*{stroke-linecap:butt;stroke-linejoin:round;}</style>
 </defs>
 <g id="figure_1">
  <g id="patch_1">
   <path d="M 0 216 
L 864 216 
L 864 0 
L 0 0 
z
" style="fill:#ffffff;"/>
  </g>
  <g id="axes_1">
   <g id="line2d_1">
    <path clip-path="url(#pbad4dd8ab7)" d="M 138.436364 61.46453 
L 139.196323 74.830276 
L 139.956282 71.906519 
L 140.716241 59.376133 
L 141.4762 63.970608 
L 142.236159 77.336354 
L 142.996118 83.392707 
L 143.756078 73.994917 
L 144.516037 101.770608 
L 145.275996 121.819227 
L 146.035955 103.859006 
L 146.795914 147.506519 
L 147.555873 177.997127 
L 148.315832 137.89989 
L 149.075792 165.46674 
L 149.835751 169.643536 
L 150.59571 111.586077 
L 151.355669 106.365083 
L 152.115628 109.49768 
L 152.875587 77.962873 
L 153.635546 66.476685 
L 154.395506 100.935249 
L 155.155465 103.023646 
L 155.915424 83.601547 
L 156.675383 126.622541 
L 157.435342 119.939669 
L 158.195301 91.537459 
L 158.95526 109.49768 
L 159.71522 96.549613 
L 160.475179 85.689945 
L 161.235138 85.063425 
L 161.995097 87.151823 
L 162.755056 101.561768 
L 163.515015 86.107624 
L 165.034934 145.626961 
L 165.794893 109.706519 
L 166.554852 136.020331 
L 167.314811 139.361768 
L 168.07477 100.726409 
L 168.834729 113.883315 
L 169.594688 131.008177 
L 170.354648 124.951823 
L 171.114607 121.819227 
L 171.874566 151.892155 
L 172.634525 151.056796 
L 173.394484 118.47779 
L 174.154443 131.425856 
L 174.914402 99.26453 
L 175.674362 47.472265 
L 176.434321 59.793812 
L 177.19428 48.934144 
L 177.954239 48.516464 
L 178.714198 70.444641 
L 179.474157 101.144088 
L 180.234116 117.642431 
L 180.994076 119.313149 
L 181.754035 126.622541 
L 182.513994 136.438011 
L 183.273953 106.782762 
L 184.033912 117.224751 
L 184.793871 138.735249 
L 185.55383 112.421436 
L 187.073749 162.542983 
L 187.833708 133.096575 
L 188.593667 139.779448 
L 189.353626 139.779448 
L 190.113585 104.276685 
L 190.873544 94.043536 
L 191.633504 100.935249 
L 192.393463 94.878895 
L 193.153422 77.545193 
L 193.913381 98.220331 
L 194.67334 99.68221 
L 195.433299 74.203757 
L 196.193258 85.481105 
L 196.953218 91.328619 
L 197.713177 75.665635 
L 199.233095 84.645746 
L 199.993054 91.955138 
L 200.753013 86.734144 
L 201.512972 99.26453 
L 202.272932 133.723094 
L 203.032891 115.971713 
L 203.79285 145.000442 
L 204.552809 183.009282 
L 205.312768 159.828066 
L 206.072727 175.28221 
L 206.832686 176.952928 
L 207.592646 133.305414 
L 208.352605 126.622541 
L 209.112564 107.409282 
L 209.872523 77.754033 
L 210.632482 58.749613 
L 211.392441 52.48442 
L 212.1524 60.211492 
L 212.91236 40.371713 
L 213.672319 49.351823 
L 214.432278 73.368398 
L 215.192237 64.597127 
L 216.712155 116.598232 
L 217.472114 126.622541 
L 218.232074 134.140773 
L 218.992033 157.948508 
L 219.751992 169.434696 
L 220.511951 150.847956 
L 221.27191 161.916464 
L 222.031869 162.542983 
L 222.791828 118.26895 
L 223.551788 121.192707 
L 224.311747 118.26895 
L 225.071706 75.665635 
L 225.831665 70.026961 
L 226.591624 72.115359 
L 228.111542 43.921989 
L 228.871502 67.938564 
L 229.631461 84.854586 
L 230.39142 79.215912 
L 231.151379 101.770608 
L 231.911338 120.566188 
L 232.671297 106.365083 
L 234.191216 124.116464 
L 234.951175 124.742983 
L 235.711134 138.944088 
L 236.471093 148.341878 
L 237.231052 156.27779 
L 237.991011 147.506519 
L 238.75097 148.968398 
L 239.51093 144.165083 
L 240.270889 105.738564 
L 241.030848 100.935249 
L 241.790807 112.421436 
L 242.550766 87.778343 
L 243.310725 90.07558 
L 244.070684 113.047956 
L 244.830644 86.107624 
L 245.590603 73.159558 
L 246.350562 82.766188 
L 247.110521 65.223646 
L 247.87048 59.376133 
L 248.630439 72.115359 
L 249.390398 91.746298 
L 250.150358 103.859006 
L 250.910317 128.919779 
L 251.670276 160.663425 
L 252.430235 162.334144 
L 253.190194 153.980552 
L 253.950153 161.707624 
L 254.710112 131.843536 
L 255.470072 109.915359 
L 256.230031 106.365083 
L 256.98999 105.320884 
L 257.749949 100.308729 
L 258.509908 103.232486 
L 259.269867 125.369503 
L 260.029826 96.340773 
L 260.789785 82.139669 
L 261.549745 94.878895 
L 262.309704 49.769503 
L 263.069663 50.187182 
L 263.829622 77.336354 
L 264.589581 75.039116 
L 265.34954 108.87116 
L 266.109499 127.66674 
L 266.869459 138.317569 
L 267.629418 143.747403 
L 268.389377 119.104309 
L 269.149336 130.381657 
L 269.909295 110.541878 
L 270.669254 97.384972 
L 271.429213 115.345193 
L 272.189173 103.650166 
L 272.949132 111.168398 
L 273.709091 127.249061 
L 274.46905 123.698785 
L 275.229009 128.29326 
L 275.988968 123.072265 
L 276.748927 128.502099 
L 278.268846 99.055691 
L 279.028805 111.168398 
L 279.788764 91.955138 
L 280.548723 88.613702 
L 281.308682 115.345193 
L 282.068641 102.605967 
L 282.828601 108.035801 
L 283.58856 118.06011 
L 284.348519 104.485525 
L 285.108478 93.625856 
L 285.868437 87.778343 
L 286.628396 84.019227 
L 287.388355 83.392707 
L 288.148315 90.49326 
L 288.908274 113.674475 
L 289.668233 129.337459 
L 290.428192 136.646851 
L 291.188151 152.518674 
L 291.94811 149.594917 
L 292.708069 121.192707 
L 294.227988 104.485525 
L 294.987947 86.734144 
L 296.507865 127.249061 
L 297.267824 123.281105 
L 298.027783 126.831381 
L 298.787743 128.502099 
L 299.547702 91.119779 
L 300.307661 59.584972 
L 301.06762 53.528619 
L 301.827579 34.315359 
L 302.587538 40.371713 
L 303.347497 71.48884 
L 304.107457 91.119779 
L 304.867416 116.598232 
L 305.627375 136.855691 
L 306.387334 144.582762 
L 307.147293 145.418122 
L 307.907252 131.217017 
L 308.667211 139.779448 
L 310.18713 122.863425 
L 310.947089 143.120884 
L 311.707048 145.209282 
L 312.467007 144.582762 
L 313.226966 150.221436 
L 313.986925 124.951823 
L 314.746885 110.333039 
L 316.266803 62.508729 
L 317.026762 54.990497 
L 317.786721 43.713149 
L 318.54668 56.870055 
L 319.306639 74.830276 
L 320.066599 85.481105 
L 320.826558 102.605967 
L 321.586517 110.124199 
L 322.346476 112.839116 
L 323.106435 123.907624 
L 323.866394 128.29326 
L 324.626353 133.514254 
L 325.386313 137.89989 
L 326.146272 146.67116 
L 326.906231 146.253481 
L 327.66619 145.209282 
L 328.426149 150.012597 
L 329.186108 146.46232 
L 329.946067 137.27337 
L 330.706027 124.116464 
L 332.225945 72.533039 
L 332.985904 60.838011 
L 333.745863 36.821436 
L 334.505822 33.48 
L 336.025741 54.363978 
L 336.7857 73.994917 
L 338.305618 119.313149 
L 339.065577 124.534144 
L 339.825536 122.445746 
L 340.585495 135.184972 
L 341.345455 134.976133 
L 342.105414 136.438011 
L 342.865373 140.823646 
L 343.625332 142.285525 
L 344.385291 143.329724 
L 345.14525 146.044641 
L 346.665169 125.578343 
L 347.425128 108.66232 
L 348.185087 101.144088 
L 349.705005 89.031381 
L 350.464964 92.372818 
L 351.224923 85.272265 
L 351.984883 80.67779 
L 352.744842 79.633591 
L 353.504801 81.304309 
L 354.26476 84.228066 
L 355.024719 96.549613 
L 355.784678 105.529724 
L 356.544637 125.578343 
L 357.304597 131.843536 
L 358.064556 122.863425 
L 358.824515 128.502099 
L 359.584474 128.29326 
L 360.344433 117.433591 
L 361.104392 121.610387 
L 361.864351 120.566188 
L 363.38427 134.349613 
L 364.144229 132.678895 
L 364.904188 124.742983 
L 365.664147 108.244641 
L 367.184065 67.729724 
L 367.944025 61.255691 
L 368.703984 57.496575 
L 369.463943 67.103204 
L 370.223902 81.09547 
L 371.74382 115.345193 
L 372.503779 110.124199 
L 373.263739 107.826961 
L 374.023698 110.750718 
L 374.783657 106.991602 
L 375.543616 94.670055 
L 376.303575 90.702099 
L 377.063534 97.384972 
L 377.823493 91.328619 
L 378.583453 94.670055 
L 380.103371 94.670055 
L 380.86333 91.746298 
L 381.623289 96.131934 
L 382.383248 101.561768 
L 383.143207 124.325304 
L 383.903166 141.867845 
L 384.663126 164.631381 
L 385.423085 173.820331 
L 386.183044 168.808177 
L 386.943003 167.763978 
L 387.702962 140.614807 
L 389.98284 92.581657 
L 390.742799 91.537459 
L 391.502758 77.545193 
L 392.262717 67.520884 
L 393.022676 69.191602 
L 393.782635 57.287735 
L 394.542594 56.661215 
L 395.302554 55.199337 
L 396.822472 76.083315 
L 397.582431 82.139669 
L 398.34239 106.156243 
L 399.862308 142.912044 
L 400.622268 152.727514 
L 401.382227 158.992707 
L 402.142186 156.27779 
L 402.902145 150.221436 
L 404.422063 115.971713 
L 405.182022 115.345193 
L 405.941982 107.826961 
L 406.701941 105.947403 
L 407.4619 113.674475 
L 409.741777 75.039116 
L 410.501736 63.344088 
L 411.261696 53.737459 
L 412.021655 51.649061 
L 412.781614 57.914254 
L 414.301532 87.151823 
L 415.82145 125.578343 
L 416.58141 149.594917 
L 417.341369 163.587182 
L 418.101328 161.498785 
L 418.861287 164.631381 
L 419.621246 169.225856 
L 421.141164 148.759558 
L 421.901124 143.956243 
L 422.661083 129.546298 
L 423.421042 110.124199 
L 424.181001 87.360663 
L 424.94096 79.215912 
L 425.700919 65.432486 
L 426.460878 59.376133 
L 427.220838 71.28 
L 427.980797 68.147403 
L 428.740756 82.139669 
L 429.500715 85.898785 
L 430.260674 87.360663 
L 431.020633 95.087735 
L 431.780592 94.878895 
L 432.540552 108.87116 
L 433.300511 114.509834 
L 434.06047 125.369503 
L 434.820429 137.89989 
L 435.580388 135.184972 
L 436.340347 136.229171 
L 437.100306 139.570608 
L 437.860266 134.349613 
L 438.620225 137.48221 
L 439.380184 128.502099 
L 440.140143 127.457901 
L 440.900102 122.445746 
L 441.660061 102.814807 
L 442.42002 97.802652 
L 443.17998 87.987182 
L 443.939939 73.786077 
L 444.699898 69.818122 
L 445.459857 72.324199 
L 446.219816 69.400442 
L 446.979775 73.368398 
L 447.739734 83.392707 
L 448.499694 82.557348 
L 450.019612 100.517569 
L 450.779571 100.935249 
L 451.53953 123.281105 
L 453.819408 162.334144 
L 454.579367 156.06895 
L 455.339326 155.651271 
L 456.859244 119.104309 
L 457.619203 112.839116 
L 458.379162 100.726409 
L 459.139122 97.176133 
L 459.899081 96.340773 
L 460.65904 94.670055 
L 461.418999 93.625856 
L 462.178958 91.955138 
L 462.938917 97.802652 
L 463.698876 98.011492 
L 464.458836 103.232486 
L 465.218795 103.441326 
L 465.978754 101.770608 
L 466.738713 103.023646 
L 467.498672 93.834696 
L 468.258631 95.087735 
L 469.01859 90.910939 
L 469.77855 90.910939 
L 470.538509 109.49768 
L 471.298468 118.06011 
L 472.818386 139.152928 
L 473.578345 139.152928 
L 474.338304 136.229171 
L 475.098264 127.457901 
L 476.618182 102.188287 
L 477.378141 84.854586 
L 478.1381 87.360663 
L 478.898059 92.581657 
L 479.658018 93.208177 
L 480.417978 103.650166 
L 481.177937 108.453481 
L 481.937896 100.09989 
L 482.697855 101.352928 
L 484.217773 78.380552 
L 484.977732 84.019227 
L 485.737692 88.613702 
L 486.497651 100.09989 
L 487.25761 118.06011 
L 488.017569 127.457901 
L 488.777528 142.285525 
L 489.537487 140.614807 
L 490.297446 137.27337 
L 491.057406 144.582762 
L 491.817365 129.337459 
L 492.577324 118.06011 
L 493.337283 125.160663 
L 494.097242 117.224751 
L 494.857201 111.794917 
L 495.61716 112.212597 
L 496.37712 96.758453 
L 497.137079 90.702099 
L 497.897038 81.09547 
L 498.656997 69.400442 
L 500.176915 76.083315 
L 501.696834 89.657901 
L 502.456793 84.019227 
L 503.216752 99.26453 
L 503.976711 108.035801 
L 504.73667 108.244641 
L 505.496629 121.192707 
L 506.256588 137.48221 
L 507.776507 161.916464 
L 508.536466 163.587182 
L 509.296425 156.27779 
L 510.056384 161.289945 
L 510.816343 142.703204 
L 511.576302 120.983867 
L 512.336261 114.092155 
L 513.096221 95.923094 
L 513.85618 82.348508 
L 514.616139 72.115359 
L 515.376098 51.231381 
L 516.136057 53.110939 
L 516.896016 46.428066 
L 517.655975 46.010387 
L 518.415935 61.046851 
L 519.175894 67.938564 
L 519.935853 82.348508 
L 520.695812 102.188287 
L 522.975689 143.956243 
L 523.735649 152.936354 
L 524.495608 169.852376 
L 525.255567 173.611492 
L 526.015526 167.763978 
L 526.775485 170.896575 
L 527.535444 164.422541 
L 528.295403 135.184972 
L 529.055363 119.104309 
L 530.575281 60.838011 
L 531.33524 54.363978 
L 532.095199 39.954033 
L 532.855158 46.428066 
L 533.615117 68.147403 
L 534.375077 71.906519 
L 535.135036 94.043536 
L 535.894995 99.89105 
L 536.654954 101.352928 
L 537.414913 106.782762 
L 538.174872 104.485525 
L 539.694791 118.89547 
L 540.45475 119.313149 
L 541.214709 139.361768 
L 541.974668 143.329724 
L 542.734627 149.803757 
L 543.494586 153.771713 
L 544.254545 146.044641 
L 545.014505 144.582762 
L 545.774464 129.963978 
L 547.294382 94.461215 
L 548.8143 48.307624 
L 549.574259 46.428066 
L 550.334219 47.681105 
L 551.094178 48.098785 
L 551.854137 64.388287 
L 552.614096 77.754033 
L 553.374055 96.131934 
L 554.134014 109.28884 
L 554.893973 115.136354 
L 556.413892 139.779448 
L 557.173851 144.373923 
L 557.93381 163.378343 
L 558.693769 172.984972 
L 559.453728 184.68 
L 560.213687 181.129724 
L 560.973647 162.542983 
L 562.493565 112.212597 
L 563.253524 81.513149 
L 564.013483 61.46453 
L 564.773442 52.48442 
L 565.533401 47.263425 
L 566.293361 68.773923 
L 567.05332 77.127514 
L 567.813279 77.754033 
L 568.573238 87.987182 
L 569.333197 87.151823 
L 570.093156 84.854586 
L 570.853115 91.119779 
L 571.613075 94.043536 
L 572.373034 106.782762 
L 573.132993 127.249061 
L 574.652911 135.184972 
L 575.41287 131.008177 
L 576.172829 123.072265 
L 576.932789 125.996022 
L 577.692748 129.963978 
L 578.452707 129.337459 
L 579.212666 143.538564 
L 579.972625 144.373923 
L 581.492543 129.963978 
L 582.252503 96.758453 
L 583.012462 68.773923 
L 584.53238 41.624751 
L 585.292339 49.142983 
L 586.052298 60.838011 
L 586.812257 81.304309 
L 587.572217 111.586077 
L 588.332176 125.160663 
L 589.092135 134.767293 
L 589.852094 140.197127 
L 590.612053 132.887735 
L 591.372012 129.337459 
L 592.131971 134.349613 
L 592.891931 144.582762 
L 593.65189 151.892155 
L 594.411849 147.715359 
L 595.931767 136.020331 
L 596.691726 119.730829 
L 597.451685 94.670055 
L 598.211645 84.436906 
L 598.971604 90.28442 
L 599.731563 88.404862 
L 601.251481 105.112044 
L 602.01144 107.409282 
L 602.771399 113.047956 
L 603.531359 101.144088 
L 604.291318 93.417017 
L 605.051277 94.670055 
L 605.811236 85.272265 
L 606.571195 82.139669 
L 607.331154 77.336354 
L 608.091113 75.039116 
L 608.851073 73.786077 
L 609.611032 73.786077 
L 611.13095 100.517569 
L 611.890909 117.851271 
L 612.650868 138.735249 
L 613.410827 150.639116 
L 614.170787 165.049061 
L 614.930746 172.567293 
L 615.690705 170.061215 
L 616.450664 157.739669 
L 619.490501 65.641326 
L 620.25046 54.990497 
L 621.010419 55.408177 
L 621.770378 53.946298 
L 622.530337 70.235801 
L 623.290296 77.545193 
L 624.050255 108.453481 
L 747.163636 108.453481 
L 747.163636 108.453481 
" style="fill:none;stroke:#000000;stroke-linecap:square;stroke-width:2;"/>
   </g>
   <g id="line2d_2">
    <path clip-path="url(#pbad4dd8ab7)" d="M 563.725171 192.24 
L 563.725171 25.92 
" style="fill:none;stroke:#ff0000;stroke-linecap:square;stroke-width:3;"/>
   </g>
   <g id="line2d_3">
    <path clip-path="url(#pbad4dd8ab7)" d="M 282.526779 192.24 
L 282.526779 25.92 
" style="fill:none;stroke:#ff0000;stroke-linecap:square;stroke-width:3;"/>
   </g>
  </g>
 </g>
 <defs>
  <clipPath id="pbad4dd8ab7">
   <rect height="166.32" width="669.6" x="108" y="25.92"/>
  </clipPath>
 </defs>
</svg>
