<?xml version="1.0" encoding="utf-8" standalone="no"?>
<!DOCTYPE svg PUBLIC "-//W3C//DTD SVG 1.1//EN"
  "http://www.w3.org/Graphics/SVG/1.1/DTD/svg11.dtd">
<!-- Created with matplotlib (https://matplotlib.org/) -->
<svg height="216pt" version="1.1" viewBox="0 0 864 216" width="864pt" xmlns="http://www.w3.org/2000/svg" xmlns:xlink="http://www.w3.org/1999/xlink">
 <metadata>
  <rdf:RDF xmlns:cc="http://creativecommons.org/ns#" xmlns:dc="http://purl.org/dc/elements/1.1/" xmlns:rdf="http://www.w3.org/1999/02/22-rdf-syntax-ns#">
   <cc:Work>
    <dc:type rdf:resource="http://purl.org/dc/dcmitype/StillImage"/>
    <dc:date>2022-12-11T22:49:44.868949</dc:date>
    <dc:format>image/svg+xml</dc:format>
    <dc:creator>
     <cc:Agent>
      <dc:title>Matplotlib v3.3.4, https://matplotlib.org/</dc:title>
     </cc:Agent>
    </dc:creator>
   </cc:Work>
  </rdf:RDF>
 </metadata>
 <defs>
  <style type="text/css">*{stroke-linecap:butt;stroke-linejoin:round;}</style>
 </defs>
 <g id="figure_1">
  <g id="patch_1">
   <path d="M 0 216 
L 864 216 
L 864 0 
L 0 0 
z
" style="fill:#ffffff;"/>
  </g>
  <g id="axes_1">
   <g id="line2d_1">
    <path clip-path="url(#pa9d0714fff)" d="M 138.436364 76.566713 
L 139.196323 90.047832 
L 139.956282 80.443636 
L 140.716241 139.654825 
L 141.4762 91.457622 
L 142.236159 131.372308 
L 142.996118 80.707972 
L 143.756078 107.053427 
L 144.516037 96.920559 
L 145.275996 94.982098 
L 146.035955 155.691189 
L 146.795914 101.061818 
L 147.555873 184.68 
L 148.315832 97.625455 
L 149.075792 134.808671 
L 149.835751 65.288392 
L 150.59571 84.144336 
L 151.355669 65.728951 
L 152.115628 61.852028 
L 152.875587 134.191888 
L 153.635546 73.306573 
L 154.395506 153.752727 
L 155.155465 72.954126 
L 155.915424 107.317762 
L 156.675383 55.243636 
L 157.435342 71.015664 
L 158.195301 91.281399 
L 158.95526 67.579301 
L 159.71522 150.052028 
L 160.475179 75.597483 
L 161.235138 122.384895 
L 161.995097 69.077203 
L 162.755056 97.361119 
L 163.515015 104.41007 
L 164.274974 93.043636 
L 165.034934 170.317762 
L 165.794893 96.832448 
L 166.554852 137.011469 
L 167.314811 90.135944 
L 168.07477 107.758322 
L 168.834729 129.345734 
L 169.594688 87.756923 
L 170.354648 128.552727 
L 171.114607 63.966713 
L 171.874566 83.791888 
L 172.634525 74.011469 
L 173.394484 68.284196 
L 174.154443 118.684196 
L 174.914402 70.575105 
L 175.674362 98.770909 
L 176.434321 78.681399 
L 177.19428 83.439441 
L 177.954239 130.050629 
L 178.714198 90.488392 
L 179.474157 123.354126 
L 180.234116 96.832448 
L 180.994076 107.758322 
L 181.754035 129.081399 
L 182.513994 108.022657 
L 183.273953 128.552727 
L 184.033912 100.621259 
L 184.793871 106.700979 
L 185.55383 106.26042 
L 186.31379 99.211469 
L 187.073749 99.828252 
L 187.833708 87.228252 
L 188.593667 90.488392 
L 189.353626 87.14014 
L 190.113585 85.113566 
L 190.873544 78.76951 
L 191.633504 81.853427 
L 192.393463 115.424056 
L 193.913381 70.663217 
L 194.67334 100.356923 
L 195.433299 94.189091 
L 196.193258 89.078601 
L 196.953218 115.864615 
L 197.713177 116.393287 
L 198.473136 129.16951 
L 199.233095 112.252028 
L 199.993054 126.261818 
L 200.753013 137.54014 
L 201.512972 121.856224 
L 202.272932 123.08979 
L 203.032891 102.295385 
L 203.79285 92.867413 
L 204.552809 92.867413 
L 205.312768 90.576503 
L 206.832686 72.425455 
L 207.592646 77.80028 
L 208.352605 72.513566 
L 209.112564 74.187692 
L 209.872523 74.09958 
L 211.392441 86.875804 
L 212.1524 100.533147 
L 212.91236 109.696783 
L 214.432278 121.327552 
L 215.192237 117.803077 
L 215.952196 122.208671 
L 216.712155 121.239441 
L 217.472114 119.212867 
L 218.232074 120.710769 
L 218.992033 117.450629 
L 219.751992 123.08979 
L 220.511951 109.784895 
L 221.27191 103.088392 
L 222.031869 92.955524 
L 222.791828 66.698182 
L 223.551788 109.432448 
L 224.311747 58.239441 
L 225.071706 92.691189 
L 225.831665 65.905175 
L 226.591624 99.387692 
L 227.351583 63.702378 
L 228.111542 94.717762 
L 228.871502 98.859021 
L 229.631461 89.254825 
L 230.39142 144.853427 
L 231.151379 94.717762 
L 231.911338 128.905175 
L 232.671297 114.631049 
L 234.191216 126.438042 
L 234.951175 109.608671 
L 235.711134 121.063217 
L 236.471093 103.00028 
L 237.231052 110.577902 
L 237.991011 89.95972 
L 238.75097 87.14014 
L 239.51093 111.018462 
L 240.270889 74.363916 
L 241.030848 91.898182 
L 241.790807 77.976503 
L 242.550766 105.026853 
L 243.310725 73.042238 
L 244.070684 88.373706 
L 244.830644 112.868811 
L 245.590603 61.94014 
L 246.350562 80.003077 
L 247.110521 50.045035 
L 247.87048 84.232448 
L 248.630439 136.13035 
L 249.390398 64.054825 
L 250.150358 106.877203 
L 250.910317 90.312168 
L 251.670276 102.912168 
L 252.430235 145.998881 
L 253.190194 65.20028 
L 253.950153 110.401678 
L 254.710112 86.875804 
L 255.470072 100.533147 
L 256.230031 121.503776 
L 256.98999 112.428252 
L 257.749949 106.789091 
L 258.509908 137.804476 
L 259.269867 82.910769 
L 260.029826 102.207273 
L 260.789785 92.603077 
L 261.549745 79.474406 
L 262.309704 100.973706 
L 263.069663 67.931748 
L 263.829622 118.948531 
L 264.589581 106.436643 
L 265.34954 96.656224 
L 266.109499 84.584895 
L 267.629418 109.256224 
L 268.389377 71.103776 
L 269.149336 159.391888 
L 269.909295 33.48 
L 270.669254 125.909371 
L 271.429213 81.412867 
L 272.189173 115.688392 
L 272.949132 121.239441 
L 273.709091 114.542937 
L 274.46905 146.263217 
L 275.229009 131.01986 
L 275.988968 123.882797 
L 276.748927 134.984895 
L 277.508887 94.717762 
L 278.268846 126.34993 
L 279.028805 99.29958 
L 279.788764 86.082797 
L 280.548723 91.81007 
L 281.308682 66.433846 
L 282.068641 94.893986 
L 282.828601 71.632448 
L 283.58856 79.914965 
L 284.348519 66.257622 
L 285.108478 77.271608 
L 285.868437 84.673007 
L 286.628396 90.40028 
L 287.388355 112.692587 
L 288.148315 110.577902 
L 288.908274 127.231049 
L 289.668233 161.682797 
L 290.428192 121.415664 
L 291.94811 113.309371 
L 292.708069 111.811469 
L 293.468029 105.026853 
L 294.987947 83.086993 
L 295.747906 80.003077 
L 296.507865 81.500979 
L 297.267824 77.624056 
L 298.027783 75.773706 
L 298.787743 83.968112 
L 299.547702 75.597483 
L 300.307661 83.968112 
L 301.06762 81.765315 
L 301.827579 92.074406 
L 302.587538 95.422657 
L 304.107457 105.026853 
L 304.867416 102.912168 
L 305.627375 109.873007 
L 306.387334 108.639441 
L 307.147293 109.08 
L 307.907252 115.776503 
L 308.667211 120.622657 
L 309.427171 120.710769 
L 310.947089 117.098182 
L 312.467007 96.832448 
L 313.226966 91.633846 
L 313.986925 83.968112 
L 314.746885 84.408671 
L 315.506844 82.293986 
L 316.266803 82.382098 
L 317.026762 82.02965 
L 317.786721 83.703776 
L 318.54668 85.818462 
L 319.306639 91.281399 
L 320.066599 100.268811 
L 320.826558 110.93035 
L 322.346476 125.468811 
L 323.106435 128.640839 
L 323.866394 124.94014 
L 324.626353 118.507972 
L 325.386313 110.842238 
L 326.146272 104.938741 
L 326.906231 99.916364 
L 327.66619 91.81007 
L 328.426149 98.947133 
L 329.186108 92.338741 
L 329.946067 89.871608 
L 330.706027 86.787692 
L 331.465986 72.161119 
L 332.225945 93.396084 
L 332.985904 64.231049 
L 333.745863 86.963916 
L 334.505822 77.624056 
L 335.265781 96.920559 
L 336.025741 109.696783 
L 336.7857 107.758322 
L 337.545659 121.68 
L 338.305618 103.793287 
L 339.065577 103.440839 
L 339.825536 98.242238 
L 340.585495 87.14014 
L 341.345455 100.533147 
L 342.105414 84.408671 
L 342.865373 110.754126 
L 343.625332 113.573706 
L 344.385291 117.979301 
L 345.14525 134.28 
L 345.905209 109.696783 
L 346.665169 121.856224 
L 347.425128 80.531748 
L 348.185087 91.986294 
L 348.945046 85.201678 
L 349.705005 80.531748 
L 350.464964 113.309371 
L 351.224923 82.998881 
L 351.984883 121.768112 
L 352.744842 94.717762 
L 353.504801 95.246434 
L 354.26476 93.21986 
L 355.024719 71.191888 
L 355.784678 117.891189 
L 356.544637 79.21007 
L 357.304597 118.507972 
L 358.064556 86.523357 
L 358.824515 131.01986 
L 359.584474 110.137343 
L 360.344433 134.28 
L 361.104392 114.542937 
L 361.864351 121.856224 
L 362.624311 112.34014 
L 363.38427 108.727552 
L 364.144229 94.62965 
L 364.904188 93.307972 
L 365.664147 92.691189 
L 366.424106 76.478601 
L 367.184065 135.073007 
L 367.944025 61.323357 
L 368.703984 103.00028 
L 369.463943 79.474406 
L 370.223902 97.713566 
L 370.983861 71.896783 
L 371.74382 84.673007 
L 372.503779 66.433846 
L 373.263739 96.303776 
L 374.023698 82.47021 
L 374.783657 112.868811 
L 375.543616 109.961119 
L 376.303575 119.741538 
L 377.063534 116.305175 
L 377.823493 115.688392 
L 378.583453 112.956923 
L 379.343412 106.172308 
L 380.103371 105.81986 
L 380.86333 110.313566 
L 381.623289 113.045035 
L 382.383248 118.948531 
L 383.143207 117.450629 
L 383.903166 116.657622 
L 384.663126 112.956923 
L 386.183044 90.576503 
L 387.702962 75.597483 
L 388.462921 76.39049 
L 389.22288 76.214266 
L 389.98284 78.240839 
L 390.742799 83.791888 
L 391.502758 88.021259 
L 392.262717 93.21986 
L 393.022676 95.07021 
L 394.542594 106.348531 
L 395.302554 109.961119 
L 396.062513 117.714965 
L 396.822472 119.477203 
L 397.582431 120.446434 
L 398.34239 118.86042 
L 399.102349 116.481399 
L 399.862308 111.370909 
L 400.622268 107.317762 
L 401.382227 102.383497 
L 402.142186 115.688392 
L 402.902145 88.461818 
L 403.662104 67.931748 
L 404.422063 64.583497 
L 405.182022 71.456224 
L 405.941982 75.156923 
L 406.701941 82.558322 
L 407.4619 92.691189 
L 408.981818 108.903776 
L 409.741777 111.370909 
L 410.501736 111.106573 
L 411.261696 112.692587 
L 412.021655 112.780699 
L 412.781614 114.631049 
L 413.541573 113.573706 
L 414.301532 116.833846 
L 415.061491 117.714965 
L 415.82145 111.282797 
L 416.58141 108.727552 
L 418.101328 88.373706 
L 418.861287 86.611469 
L 419.621246 85.201678 
L 420.381205 87.668811 
L 421.141164 89.254825 
L 421.901124 90.047832 
L 422.661083 94.189091 
L 423.421042 90.752727 
L 424.181001 86.523357 
L 424.94096 97.273007 
L 425.700919 79.21007 
L 426.460878 110.313566 
L 427.220838 102.912168 
L 427.980797 105.81986 
L 428.740756 107.22965 
L 429.500715 113.74993 
L 430.260674 110.48979 
L 431.020633 112.252028 
L 431.780592 119.389091 
L 432.540552 109.961119 
L 433.300511 85.466014 
L 434.06047 71.720559 
L 434.820429 103.088392 
L 435.580388 125.468811 
L 436.340347 91.017063 
L 437.100306 112.516364 
L 437.860266 83.086993 
L 438.620225 86.611469 
L 439.380184 83.527552 
L 440.140143 65.464615 
L 440.900102 143.972308 
L 441.660061 60.442238 
L 442.42002 115.60028 
L 443.17998 91.898182 
L 443.939939 111.547133 
L 444.699898 105.291189 
L 445.459857 102.295385 
L 446.219816 104.498182 
L 446.979775 98.947133 
L 447.739734 96.303776 
L 448.499694 127.054825 
L 449.259653 99.475804 
L 450.019612 132.782098 
L 450.779571 107.934545 
L 451.53953 100.973706 
L 452.299489 113.926154 
L 453.059448 87.228252 
L 453.819408 73.747133 
L 454.579367 96.039441 
L 455.339326 66.698182 
L 456.099285 95.775105 
L 456.859244 88.726154 
L 457.619203 88.021259 
L 458.379162 122.296783 
L 459.139122 90.488392 
L 459.899081 98.594685 
L 460.65904 102.912168 
L 461.418999 82.734545 
L 462.178958 106.524755 
L 462.938917 87.404476 
L 463.698876 87.580699 
L 464.458836 103.881399 
L 465.218795 95.863217 
L 465.978754 107.582098 
L 466.738713 105.555524 
L 467.498672 97.88979 
L 468.258631 99.563916 
L 469.01859 82.822657 
L 469.77855 101.942937 
L 470.538509 114.454825 
L 471.298468 117.450629 
L 472.058427 116.833846 
L 472.818386 121.063217 
L 473.578345 104.938741 
L 474.338304 92.691189 
L 475.098264 90.135944 
L 475.858223 77.976503 
L 476.618182 79.033846 
L 477.378141 90.664615 
L 478.1381 84.584895 
L 478.898059 84.761119 
L 479.658018 87.492587 
L 480.417978 95.686993 
L 481.177937 96.744336 
L 481.937896 104.674406 
L 482.697855 121.68 
L 483.457814 108.639441 
L 484.217773 118.41986 
L 484.977732 113.309371 
L 485.737692 104.233846 
L 486.497651 109.432448 
L 487.25761 106.700979 
L 488.017569 109.344336 
L 488.777528 105.555524 
L 489.537487 104.145734 
L 490.297446 94.62965 
L 491.057406 91.457622 
L 491.817365 96.215664 
L 492.577324 102.119161 
L 493.337283 102.647832 
L 494.097242 105.907972 
L 494.857201 107.493986 
L 495.61716 100.268811 
L 496.37712 91.633846 
L 497.897038 83.439441 
L 498.656997 81.06042 
L 499.416956 83.791888 
L 502.456793 129.257622 
L 503.216752 127.75972 
L 503.976711 130.667413 
L 504.73667 120.710769 
L 505.496629 113.838042 
L 506.256588 104.321958 
L 507.016547 98.859021 
L 507.776507 102.207273 
L 508.536466 92.867413 
L 509.296425 96.303776 
L 510.056384 85.818462 
L 510.816343 72.601678 
L 511.576302 82.998881 
L 512.336261 44.317762 
L 513.096221 77.976503 
L 513.85618 56.389091 
L 514.616139 71.544336 
L 515.376098 108.639441 
L 516.136057 95.07021 
L 516.896016 143.531748 
L 517.655975 124.675804 
L 518.415935 164.502378 
L 519.175894 145.117762 
L 520.695812 98.066014 
L 521.455771 91.457622 
L 522.21573 102.031049 
L 522.975689 92.603077 
L 523.735649 99.123357 
L 524.495608 93.043636 
L 525.255567 81.236643 
L 526.015526 98.947133 
L 526.775485 83.175105 
L 527.535444 93.043636 
L 528.295403 76.302378 
L 529.055363 85.642238 
L 529.815322 104.145734 
L 530.575281 86.170909 
L 531.33524 118.331748 
L 532.095199 97.801678 
L 532.855158 116.745734 
L 533.615117 102.824056 
L 534.375077 102.647832 
L 535.135036 107.582098 
L 535.894995 103.528951 
L 536.654954 122.913566 
L 537.414913 109.696783 
L 538.174872 107.317762 
L 538.934831 105.81986 
L 539.694791 85.906573 
L 540.45475 103.881399 
L 541.214709 95.863217 
L 541.974668 128.728951 
L 542.734627 69.077203 
L 543.494586 112.516364 
L 544.254545 81.853427 
L 545.014505 98.154126 
L 545.774464 118.155524 
L 546.534423 65.552727 
L 547.294382 98.594685 
L 548.054341 101.326154 
L 548.8143 75.068811 
L 549.574259 121.503776 
L 550.334219 71.103776 
L 551.094178 108.727552 
L 551.854137 105.203077 
L 552.614096 105.996084 
L 553.374055 128.024056 
L 554.134014 110.313566 
L 554.893973 102.207273 
L 555.653933 91.898182 
L 556.413892 79.033846 
L 557.173851 111.89958 
L 557.93381 84.232448 
L 558.693769 106.172308 
L 559.453728 104.41007 
L 560.213687 79.562517 
L 560.973647 167.145734 
L 561.733606 60.882797 
L 562.493565 112.692587 
L 563.253524 75.333147 
L 564.013483 101.414266 
L 564.773442 92.162517 
L 565.533401 93.21986 
L 566.293361 112.163916 
L 567.05332 105.467413 
L 567.813279 94.100979 
L 568.573238 115.247832 
L 569.333197 80.355524 
L 570.093156 109.784895 
L 570.853115 84.232448 
L 571.613075 111.635245 
L 572.373034 93.924755 
L 573.132993 108.991888 
L 573.892952 108.903776 
L 574.652911 106.084196 
L 575.41287 116.657622 
L 576.172829 106.26042 
L 576.932789 98.418462 
L 577.692748 123.266014 
L 578.452707 72.866014 
L 579.212666 100.180699 
L 579.972625 91.457622 
L 580.732584 93.836643 
L 581.492543 99.74014 
L 582.252503 95.598881 
L 583.012462 92.691189 
L 583.772421 100.180699 
L 584.53238 68.284196 
L 585.292339 97.625455 
L 586.052298 68.46042 
L 586.812257 85.554126 
L 588.332176 101.238042 
L 589.092135 129.081399 
L 589.852094 97.977902 
L 591.372012 126.526154 
L 592.131971 85.554126 
L 592.891931 117.626853 
L 593.65189 97.801678 
L 594.411849 95.686993 
L 595.171808 127.671608 
L 595.931767 86.611469 
L 596.691726 118.41986 
L 597.451685 82.02965 
L 598.211645 85.28979 
L 598.971604 85.28979 
L 599.731563 77.624056 
L 600.491522 113.045035 
L 601.251481 61.852028 
L 602.01144 109.608671 
L 602.771399 78.76951 
L 603.531359 105.114965 
L 604.291318 108.110769 
L 605.051277 94.541538 
L 605.811236 124.411469 
L 606.571195 99.916364 
L 607.331154 131.284196 
L 608.091113 120.27021 
L 608.851073 119.036643 
L 609.611032 150.228252 
L 610.370991 105.467413 
L 611.13095 131.724755 
L 611.890909 99.916364 
L 612.650868 110.48979 
L 613.410827 87.404476 
L 614.170787 87.668811 
L 614.930746 79.033846 
L 615.690705 76.214266 
L 616.450664 76.39049 
L 617.210623 79.826853 
L 617.970582 85.73035 
L 619.490501 94.277203 
L 620.25046 95.422657 
L 621.770378 99.475804 
L 623.290296 105.731748 
L 624.050255 112.780699 
L 624.810215 117.626853 
L 625.570174 117.538741 
L 626.330133 119.212867 
L 627.090092 118.155524 
L 627.850051 113.485594 
L 628.61001 111.89958 
L 629.369969 111.547133 
L 630.129928 108.375105 
L 630.889888 101.766713 
L 631.649847 99.123357 
L 633.169765 83.527552 
L 633.929724 77.535944 
L 634.689683 74.275804 
L 635.449642 76.831049 
L 636.209602 78.681399 
L 636.969561 86.523357 
L 637.72952 89.519161 
L 638.489479 97.537343 
L 639.249438 110.666014 
L 640.009397 114.366713 
L 640.769356 121.063217 
L 641.529316 120.710769 
L 642.289275 122.473007 
L 643.049234 125.292587 
L 643.809193 119.036643 
L 644.569152 116.657622 
L 645.329111 113.74993 
L 646.08907 107.405874 
L 646.84903 102.912168 
L 647.608989 93.924755 
L 649.128907 79.738741 
L 649.888866 77.624056 
L 650.648825 77.447832 
L 651.408784 77.888392 
L 652.168744 86.259021 
L 652.928703 89.783497 
L 653.688662 98.418462 
L 654.448621 104.321958 
L 655.20858 106.965315 
L 655.968539 112.252028 
L 656.728498 109.344336 
L 657.488458 107.934545 
L 659.008376 98.682797 
L 659.768335 101.766713 
L 660.528294 104.057622 
L 662.048212 117.186294 
L 662.808172 113.926154 
L 663.568131 115.335944 
L 664.32809 107.22965 
L 666.607967 88.726154 
L 667.367926 89.783497 
L 668.127886 89.607273 
L 668.887845 89.695385 
L 669.647804 91.105175 
L 670.407763 90.40028 
L 671.167722 91.281399 
L 671.927681 90.664615 
L 673.4476 94.277203 
L 674.207559 97.625455 
L 674.967518 104.762517 
L 675.727477 107.934545 
L 676.487436 113.133147 
L 677.247395 116.921958 
L 678.007354 114.278601 
L 678.767314 112.428252 
L 679.527273 103.440839 
L 680.287232 97.537343 
L 681.047191 92.514965 
L 681.80715 90.488392 
L 682.567109 92.338741 
L 683.327068 94.893986 
L 684.087028 98.770909 
L 684.846987 103.793287 
L 685.606946 99.74014 
L 686.366905 99.123357 
L 687.126864 97.361119 
L 687.886823 94.453427 
L 688.646782 92.603077 
L 689.406742 94.805874 
L 690.166701 98.859021 
L 690.92666 98.066014 
L 691.686619 97.977902 
L 693.206537 101.414266 
L 693.966496 102.383497 
L 694.726456 99.387692 
L 695.486415 102.824056 
L 696.246374 105.203077 
L 697.006333 108.463217 
L 697.766292 121.327552 
L 699.28621 127.142937 
L 700.04617 127.054825 
L 701.566088 111.194685 
L 703.086006 84.056224 
L 703.845965 78.505175 
L 704.605924 77.007273 
L 705.365884 80.61986 
L 706.125843 80.179301 
L 706.885802 80.003077 
L 707.645761 83.086993 
L 708.40572 82.117762 
L 709.165679 86.611469 
L 709.925638 88.197483 
L 710.685598 93.484196 
L 711.445557 100.797483 
L 712.205516 104.938741 
L 713.725434 119.82965 
L 716.005312 131.107972 
L 716.765271 130.314965 
L 717.52523 108.815664 
L 718.285189 104.586294 
L 719.045148 97.977902 
L 719.805107 99.916364 
L 747.163636 99.916364 
L 747.163636 99.916364 
" style="fill:none;stroke:#000000;stroke-linecap:square;stroke-width:2;"/>
   </g>
   <g id="line2d_2">
    <path clip-path="url(#pa9d0714fff)" d="M 559.490458 192.24 
L 559.490458 25.92 
" style="fill:none;stroke:#ff0000;stroke-linecap:square;stroke-width:3;"/>
   </g>
   <g id="line2d_3">
    <path clip-path="url(#pa9d0714fff)" d="M 440.899218 192.24 
L 440.899218 25.92 
" style="fill:none;stroke:#ff0000;stroke-linecap:square;stroke-width:3;"/>
   </g>
   <g id="line2d_4">
    <path clip-path="url(#pa9d0714fff)" d="M 328.158065 192.24 
L 328.158065 25.92 
" style="fill:none;stroke:#ff0000;stroke-linecap:square;stroke-width:3;"/>
   </g>
   <g id="line2d_5">
    <path clip-path="url(#pa9d0714fff)" d="M 217.722667 192.24 
L 217.722667 25.92 
" style="fill:none;stroke:#ff0000;stroke-linecap:square;stroke-width:3;"/>
   </g>
  </g>
 </g>
 <defs>
  <clipPath id="pa9d0714fff">
   <rect height="166.32" width="669.6" x="108" y="25.92"/>
  </clipPath>
 </defs>
</svg>
